<svg id="Layer_1" data-name="Layer 1" xmlns="http://www.w3.org/2000/svg" xmlns:xlink="http://www.w3.org/1999/xlink" viewBox="0 0 88.71 88.71"><defs><style>.cls-1,.cls-4{fill:none;}.cls-2{clip-path:url(#clip-path);}.cls-3,.cls-5{fill:#fff;}.cls-4,.cls-5{stroke:#000;stroke-width:0.75px;}.cls-4{stroke-miterlimit:10;}.cls-5{stroke-linecap:round;stroke-linejoin:round;}</style><clipPath id="clip-path"><rect class="cls-1" width="88.71" height="88.71"/></clipPath></defs><g class="cls-2"><path class="cls-3" d="M44.36,6.38a38,38,0,1,1-38,38,38,38,0,0,1,38-38m0-6a44,44,0,1,0,44,44,44,44,0,0,0-44-44"/><path class="cls-4" d="M44.36,6.38a38,38,0,1,1-38,38,38,38,0,0,1,38-38m0-6a44,44,0,1,0,44,44A44,44,0,0,0,44.36.38Z"/></g><path class="cls-5" d="M65.19,23a2.24,2.24,0,0,0-1.36-.47H52.5a2.25,2.25,0,0,0,0,4.5h6L47.88,37.67a2.25,2.25,0,1,0,3.18,3.18L61.81,30.1v6.13a2.25,2.25,0,0,0,4.5,0V24.91A2.24,2.24,0,0,0,65.19,23Z"/><path class="cls-5" d="M23.88,38.48a2.25,2.25,0,0,0,2.25-2.25V30.1L37.26,41.23a2.25,2.25,0,1,0,3.19-3.18L29.39,27h6a2.25,2.25,0,0,0,0-4.5H24.12a2.22,2.22,0,0,0-1.36.47,2.25,2.25,0,0,0-1.13,1.94V36.23A2.25,2.25,0,0,0,23.88,38.48Z"/><path class="cls-5" d="M64.06,51.12a2.25,2.25,0,0,0-2.25,2.25V59.5L50.58,48.27a2.25,2.25,0,1,0-3.18,3.18L58.55,62.6h-6a2.25,2.25,0,1,0,0,4.5H63.83a2.64,2.64,0,0,0,2.48-2.41V53.37A2.25,2.25,0,0,0,64.06,51.12Z"/><path class="cls-5" d="M37.29,48.34,26.13,59.5V53.37a2.25,2.25,0,0,0-4.5,0V64.69a2.25,2.25,0,0,0,1.13,1.94,2.2,2.2,0,0,0,1.36.47H35.44a2.25,2.25,0,1,0,0-4.5h-6L40.47,51.52a2.25,2.25,0,0,0-3.18-3.18Z"/></svg>