<svg xmlns="http://www.w3.org/2000/svg" viewBox="0 0 88.71 88.71"><defs><style>.cls-1{fill:#fff;stroke:#000;stroke-miterlimit:10;stroke-width:0.75px;}</style></defs><g id="pause"><line class="cls-1" x1="41.47" y1="28.36" x2="41.47" y2="61.33"/><path class="cls-1" d="M40.84,63.83a2.66,2.66,0,0,1-2.78-2.5v-33a2.8,2.8,0,0,1,5.57,0v33A2.66,2.66,0,0,1,40.84,63.83Z"/><line class="cls-1" x1="51.46" y1="28.36" x2="51.46" y2="61.33"/><path class="cls-1" d="M52.09,63.83a2.66,2.66,0,0,1-2.79-2.5v-33a2.8,2.8,0,0,1,5.57,0v33A2.66,2.66,0,0,1,52.09,63.83Z"/><g id="Layer_2_copy_2" data-name="Layer 2 copy 2"><path class="cls-1" d="M44.36,6.38a38,38,0,1,1-38,38,38,38,0,0,1,38-38m0-6a44,44,0,1,0,44,44,44,44,0,0,0-44-44Z"/></g></g></svg>