<svg xmlns="http://www.w3.org/2000/svg" xmlns:xlink="http://www.w3.org/1999/xlink" viewBox="0 0 88.71 88.71"><defs><style>.cls-1,.cls-5{fill:none;}.cls-2,.cls-4{fill:#fff;}.cls-2,.cls-5{stroke:#000;stroke-width:0.75px;}.cls-2{stroke-linecap:round;stroke-linejoin:round;}.cls-3{clip-path:url(#clip-path);}.cls-5{stroke-miterlimit:10;}</style><clipPath id="clip-path"><rect class="cls-1" width="88.71" height="88.71"/></clipPath></defs><g id="Layer_2" data-name="Layer 2"><path class="cls-2" d="M63.22,34a1.87,1.87,0,0,0-.95-1.63,1.84,1.84,0,0,0-1.15-.4H55.78a1.9,1.9,0,1,0,0,3.8h3.64V51.9s0,0,0,.07,0,0,0,.07v7.79H29.29V35.77h3.64a1.9,1.9,0,0,0,0-3.8H27.59a2.22,2.22,0,0,0-2.1,2V61.6a2.24,2.24,0,0,0,2.1,2H61.12a2.23,2.23,0,0,0,2.1-2V52s0,0,0-.07,0,0,0-.07Z"/><g class="cls-3"><path class="cls-4" d="M44.36,6.38a38,38,0,1,1-38,38,38,38,0,0,1,38-38m0-6a44,44,0,1,0,44,44,44,44,0,0,0-44-44"/><path class="cls-5" d="M44.36,6.38a38,38,0,1,1-38,38,38,38,0,0,1,38-38m0-6a44,44,0,1,0,44,44A44,44,0,0,0,44.36.38Z"/></g></g><g id="Layer_3" data-name="Layer 3"><path class="cls-2" d="M44,15a2,2,0,0,0-1.13.55l-7,6.94a2,2,0,0,0,2.79,2.78l3.84-3.76-.08,25.28a2,2,0,0,0,3.93,0V21.46L50,25.12a2,2,0,1,0,2.78-2.79l-6.86-6.86A2,2,0,0,0,44,15Z"/></g></svg>