<svg xmlns="http://www.w3.org/2000/svg" viewBox="0 0 88.71 88.71"><defs><style>.cls-1,.cls-2{fill:#fff;stroke:#000;}.cls-1{stroke-miterlimit:10;stroke-width:0.75px;}.cls-2{stroke-linecap:round;stroke-linejoin:round;}</style></defs><g id="prev_2" data-name="prev 2"><line class="cls-1" x1="31.56" y1="28.75" x2="31.56" y2="61.72"/><path class="cls-1" d="M32.19,64.22a2.66,2.66,0,0,1-2.79-2.5v-33a2.8,2.8,0,0,1,5.57,0v33A2.66,2.66,0,0,1,32.19,64.22Z"/><path class="cls-2" d="M58.62,63.38a3,3,0,0,1-1.93-.7L37.36,46.48a3,3,0,0,1,0-4.62L56.72,26a3,3,0,0,1,4.52.87,3.11,3.11,0,0,1-.85,3.88L44.06,44.15a.09.09,0,0,0,0,.12L60.54,58.08a3,3,0,0,1-1.92,5.3Z"/><g id="Layer_2_copy_5" data-name="Layer 2 copy 5"><path class="cls-1" d="M44.36,6.38a38,38,0,1,1-38,38,38,38,0,0,1,38-38m0-6a44,44,0,1,0,44,44,44,44,0,0,0-44-44Z"/></g></g></svg>