<svg id="play" xmlns="http://www.w3.org/2000/svg" viewBox="0 0 88.71 88.71"><defs><style>.cls-1,.cls-2{fill:#fff;stroke:#000;stroke-width:0.75px;}.cls-1{stroke-linecap:round;stroke-linejoin:round;}.cls-2{stroke-miterlimit:10;}</style></defs><path class="cls-1" d="M39.05,33.17,56.53,44.36,39.05,55.54V33.17m-4-8.33a1,1,0,0,0-1,1V62.89a1,1,0,0,0,1,1,1,1,0,0,0,.53-.16l29-18.53a1,1,0,0,0,0-1.65L35.56,25a1,1,0,0,0-.53-.16Z"/><g id="Layer_2" data-name="Layer 2"><path class="cls-2" d="M44.36,6.38a38,38,0,1,1-38,38,38,38,0,0,1,38-38m0-6a44,44,0,1,0,44,44,44,44,0,0,0-44-44Z"/></g></svg>